<svg xmlns="http://www.w3.org/2000/svg" xmlns:xlink="http://www.w3.org/1999/xlink" viewBox="0 0 430 430" width="430" height="430" preserveAspectRatio="xMidYMid meet" style="width: 100%; height: 100%; transform: translate3d(0px, 0px, 0px); content-visibility: visible;"><defs><clipPath id="__lottie_element_11159"><rect width="430" height="430" x="0" y="0"/></clipPath><clipPath id="__lottie_element_11161"><path d="M0,0 L430,0 L430,430 L0,430z"/></clipPath></defs><g clip-path="url(#__lottie_element_11159)"><g clip-path="url(#__lottie_element_11161)" transform="matrix(1,0,0,1,0,0)" opacity="1" style="display: block;"><g transform="matrix(0.9999828338623047,0.005859934259206057,-0.005859934259206057,0.9999828338623047,215.9534912109375,285)" opacity="1" style="display: block;"><g opacity="1" transform="matrix(1,0,0,1,0,0)"><path stroke-linecap="round" stroke-linejoin="round" fill-opacity="0" class="secondary" stroke="rgb(255,255,255)" stroke-opacity="1" stroke-width="18" d=" M-35,-35 C-35,-35 -35,35 -35,35 C-35,35 35,35 35,35 C35,35 35,-35 35,-35 C35,-35 -35,-35 -35,-35z"/></g></g><g transform="matrix(0.9999960064888,0.002829622942954302,-0.002829622942954302,0.9999960064888,216.10345458984375,232.00021362304688)" opacity="1" style="display: block;"><g opacity="1" transform="matrix(1,0,0,1,0.28299999237060547,-107.09400177001953)"><path stroke-linecap="round" stroke-linejoin="round" fill-opacity="0" class="secondary" stroke="rgb(255,255,255)" stroke-opacity="1" stroke-width="18" d=" M-90,63.5 C-90,63.5 -90,0 -90,0 C-90,-49.70600128173828 -49.70600128173828,-90 0,-90 C49.70600128173828,-90 90,-49.70600128173828 90,0 C90,0 90,63.5 90,63.5"/></g></g><g transform="matrix(0.9999960064888,0.002829622942954302,-0.002829622942954302,0.9999960064888,215.9534912109375,285)" opacity="1" style="display: block;"><g opacity="1" transform="matrix(1,0,0,1,0,0)"><path stroke-linecap="round" stroke-linejoin="round" fill-opacity="0" class="primary" stroke="rgb(255,255,255)" stroke-opacity="1" stroke-width="18" d=" M0.14800000190734863,-95 C-64.9010009765625,-95 -130,-95 -130,-95 C-130,-95 -130,55 -130,55 C-130,77.09100341796875 -112.09100341796875,95 -90,95 C-90,95 90,95 90,95 C112.09100341796875,95 130,77.09100341796875 130,55 C130,55 130,-95 130,-95 C130,-95 130,-95 130,-95 C130,-95 65.0989990234375,-95 0.14800000190734863,-95"/></g></g></g></g></svg>